<svg version="1.2" xmlns="http://www.w3.org/2000/svg" viewBox="0 0 733 738" width="1920" height="1933">
	<title>3236269-ai</title>
	<style>
		.s0 { fill: #0f4c81 } 
		.s1 { opacity: .7;fill: #ffffff } 
		.s2 { fill: none;stroke: #263238;stroke-linecap: round;stroke-linejoin: round;stroke-width: 2 } 
		.s3 { fill: #263238 } 
		.s4 { fill: #263238;stroke: #263238;stroke-linecap: round;stroke-linejoin: round;stroke-width: 2 } 
		.s5 { opacity: .5;fill: #ffffff } 
		.s6 { opacity: .1;fill: #000000 } 
		.s7 { fill: #0f4c81;stroke: #263238;stroke-linecap: round;stroke-linejoin: round;stroke-width: 2 } 
		.s8 { fill: none;stroke: #ffffff;stroke-linecap: round;stroke-linejoin: round;stroke-width: 2 } 
		.s9 { fill: #ffffff;stroke: #263238;stroke-linecap: round;stroke-linejoin: round;stroke-width: 2 } 
		.s10 { fill: none;stroke: #263238;stroke-linecap: round;stroke-linejoin: round;stroke-width: 4 } 
		.s11 { fill: none;stroke: #ffffff;stroke-linecap: round;stroke-linejoin: round;stroke-width: 1.5 } 
	</style>
	<g id="Background Simple">
		<g id="&lt;Group&gt;">
			<path id="&lt;Path&gt;" class="s0" d="m688.9 525.2c15-122.1-57.5-284.4-132.6-351.4-135.6-121-248.2-97.6-335.8-54.3-87.6 43.4-100.1 188-160.6 253.5-60.5 65.5-94.9 153.5-3.1 241.2 91.7 87.6 165.8 43.1 261.7 37.5 96-5.5 223.2 38.2 292.1 0.2 48-26.6 71.7-72.7 78.3-126.7z"/>
			<path id="&lt;Path&gt;" class="s1" d="m688.9 525.2c15-122.1-57.5-284.4-132.6-351.4-135.6-121-248.2-97.6-335.8-54.3-87.6 43.4-100.1 188-160.6 253.5-60.5 65.5-94.9 153.5-3.1 241.2 91.7 87.6 165.8 43.1 261.7 37.5 96-5.5 223.2 38.2 292.1 0.2 48-26.6 71.7-72.7 78.3-126.7z"/>
		</g>
	</g>
	<g id="Background">
		<g id="&lt;Group&gt;">
			<g id="&lt;Group&gt;">
				<path id="&lt;Path&gt;" class="s2" d="m309.2 520.9v-449.9"/>
				<path id="&lt;Path&gt;" class="s2" d="m16.8 525.4h283.8l431.1 139.1"/>
			</g>
			<path id="&lt;Path&gt;" class="s3" d="m146.1 514.8h-19.7v-324.1h40.5l-17.5-63h-52.4l-17.5 63h40.5v324.1h-19.7c-10.4 0-18.9 8.4-19.1 18.8q0 0.1-0.1 0.2 0 0 0.1 0-0.1 0.1-0.1 0.2h0.1c0.6 4.5 19.1 8.2 42 8.2 22.8 0 41.4-3.7 42-8.2h0.1c0-10.6-8.6-19.2-19.2-19.2z"/>
			<path id="&lt;Compound Path&gt;" fill-rule="evenodd" class="s4" d="m694.5 1.4v476.2l-287.3-47.2v-381.7zm-7.5 9l-146.1 23.3v132.5l146.1-8.2zm-146.1 289.6l146.1 6.8v-133.3l-146.1 6.7zm-11.8-119.3l-117.1 5.4v107.8l117.1 5.5zm-117.1-126.6v119.4l117.1-6.6v-131.4zm0 370.7l117.1 18.6v-130.2l-117.1-6.7zm275 43.7v-146.2l-146.1-8.4v131.4z"/>
		</g>
	</g>
	<g id="Character">
		<g id="&lt;Group&gt;">
			<g id="&lt;Group&gt;">
				<g id="&lt;Group&gt;">
					<path id="&lt;Path&gt;" class="s0" d="m538 639.3c0 39.5-103 71.6-229.9 71.6-127 0-229.9-32.1-229.9-71.6 0-39.6 102.9-71.7 229.9-71.7 126.9 0 229.9 32.1 229.9 71.7z"/>
					<path id="&lt;Path&gt;" class="s5" d="m538 639.3c0 39.5-103 71.6-229.9 71.6-127 0-229.9-32.1-229.9-71.6 0-39.6 102.9-71.7 229.9-71.7 126.9 0 229.9 32.1 229.9 71.7z"/>
				</g>
				<g id="&lt;Clip Group&gt;">
					<path id="&lt;Path&gt;" class="s6" d="m414.7 631.7c-19.7-2.6-43-8-60.7-18.7-37.3-22.7-46.7-65.3-60-81.3-13.3-16-37.3-14.7-48-32-10.7-17.4 6.7-145.4-24-153.4-8.2-2.1-14.4-2.8-19.1-2.7q-0.3 0.2-0.6 0.4c-34.3 26.8-63.8 138.5-63.1 192 0.7 53.5 20.6 80.2 70.6 102.1 50.1 22 143.3 13.7 195.4-2.7q5-1.6 9.5-3.7z"/>
					<path id="&lt;Path&gt;" class="s7" d="m288.7 323.5c0 0-52.1-6.2-86.4 20.5-34.3 26.8-63.8 138.5-63.1 192 0.7 53.5 20.6 80.2 70.6 102.1 50.1 22 143.3 13.7 195.4-2.7 52.1-16.5 69.2-74.1 68.5-104.9-0.6-30.8-34.9-66.5-46.6-74-11.6-7.6-44.5-23.3-61-48-16.4-24.7-40.4-78.2-77.4-85z"/>
				</g>
				<g id="&lt;Group&gt;">
					<g id="&lt;Group&gt;">
						<path id="&lt;Path&gt;" class="s4" d="m268.1 347.6c0 0-34 6.5-40 12.5-6 6-31 100-31 100 0 0 11-3 21 1 10 4 11 14.5 12 19.5 1 5 1.5 18 1.5 18 0 0 101.1-9 122.6-14 21.5-5 54.2-7.3 54.2-7.3 0 0-55.3-124.7-63.8-129.2-8.5-4.5-44-5-49-4-5 1-27.5 3.5-27.5 3.5z"/>
						<path id="&lt;Path&gt;" class="s8" d="m234.6 463.1l8.5-69.5"/>
						<path id="&lt;Path&gt;" class="s8" d="m241.1 412.1l11.5-15"/>
						<path id="&lt;Path&gt;" class="s8" d="m275.6 421.1c0 0 32.5-10.5 54-10.5"/>
						<path id="&lt;Path&gt;" class="s8" d="m306.3 392.5l-2.2 16.6c0 0 5.5 0 6 2.5 0.5 2.5-2 5-2 5 0 0 15.5 8.5 17.5 18.5"/>
					</g>
					<g id="&lt;Clip Group&gt;">
						<path id="&lt;Path&gt;" class="s0" d="m265.5 339.6c-1.8 3.2-1.5 18.7-1.1 29.9 4.2-5.4 13-15.8 18.1-13.8 6.5 2.5 9 20.9 9 20.9l-4.4-47.7q-0.2 0-0.3 0.1c0 0-18.7 6-21.3 10.6z"/>
						<path id="&lt;Path&gt;" class="s5" d="m265.5 339.6c-1.8 3.2-1.5 18.7-1.1 29.9 4.2-5.4 13-15.8 18.1-13.8 6.5 2.5 9 20.9 9 20.9l-4.4-47.7q-0.2 0-0.3 0.1c0 0-18.7 6-21.3 10.6z"/>
						<path id="&lt;Path&gt;" class="s9" d="m286.8 329c0 0-18.7 6-21.3 10.6-2.7 4.7-0.7 37.4-0.7 41.4 0 4 2.3-2.4 4.3-7 2-4.7 9-11.7 11.4-11 2.3 0.6 3.6 3.3 3.6 7.6 0 4.4 5.4 10.4 10 13.7 4.7 3.3 9 6.7 9 6.7 0 0 9.7-14 12-17.7 2.4-3.7 2-11.3 2.4-14 0.3-2.7 6.3 7.3 7.6 4.7 1.4-2.7-3-5-7.6-12.4-4.7-7.3-3.4-15-10.4-20.3-7-5.3-15-3.7-20.3-2.3z"/>
					</g>
					<g id="&lt;Clip Group&gt;">
						<path id="&lt;Path&gt;" class="s0" d="m195.9 488.1c0 0-4-11.4-2-15.4 2-4 9.9-10 14.9-15.9 5-6-11.7 3.3-12.5 0-0.6-2.8 8.8-8.2 12.5-10.2-11.6 2.2-22.8 10.3-23.2 13.5-0.5 4-4 25.5-1.5 28.5 1.3 1.6 4.5 3 9.8 3.2 1.2-2.1 2-3.7 2-3.7z"/>
						<path id="&lt;Path&gt;" class="s5" d="m195.9 488.1c0 0-4-11.4-2-15.4 2-4 9.9-10 14.9-15.9 5-6-11.7 3.3-12.5 0-0.6-2.8 8.8-8.2 12.5-10.2-11.6 2.2-22.8 10.3-23.2 13.5-0.5 4-4 25.5-1.5 28.5 1.3 1.6 4.5 3 9.8 3.2 1.2-2.1 2-3.7 2-3.7z"/>
						<path id="&lt;Path&gt;" class="s9" d="m242.6 464.1c0 0-11.5-16.5-25.5-18-14-1.5-31 10-31.5 14-0.5 4-4 25.5-1.5 28.5 2.5 3 12 5.5 30.5-0.5 18.5-6 26-13.5 28-24z"/>
					</g>
				</g>
				<g id="&lt;Clip Group&gt;">
					<path id="&lt;Path&gt;" class="s0" d="m242.9 466.6c28.5-14.3 69.2-31 69.2-31-3 0-73 17.5-83.5 21.5-10.5 4-25 11.5-25 11.5 0 0-18.7 7.5-19.5 22-0.4 8.1 13 11.5 27 11.5 14 0 34-17.5 47-25 2.2-1.2 4.9-2.8 7.9-4.5-19.1 2.4-44.6 4.7-23.1-6z"/>
					<path id="&lt;Path&gt;" class="s5" d="m242.9 466.6c28.5-14.3 69.2-31 69.2-31-3 0-73 17.5-83.5 21.5-10.5 4-25 11.5-25 11.5 0 0-18.7 7.5-19.5 22-0.4 8.1 13 11.5 27 11.5 14 0 34-17.5 47-25 2.2-1.2 4.9-2.8 7.9-4.5-19.1 2.4-44.6 4.7-23.1-6z"/>
					<path id="&lt;Path&gt;" class="s9" d="m203.6 468.6c0 0-18.7 7.5-19.5 22-0.4 8.1 13 11.5 27 11.5 14 0 34-17.5 47-25 13-7.5 43-25 46.5-26.5 3.5-1.5 15.5 2.5 20.5 4 5 1.5 14.5 1.5 14.5 1.5 0 0 7 11 10.5 11 3.5 0-7.5-16.5-9-20-1.5-3.5-26-11.5-29-11.5-3 0-73 17.5-83.5 21.5-10.5 4-25 11.5-25 11.5z"/>
				</g>
				<g id="&lt;Group&gt;">
					<path id="&lt;Path&gt;" class="s9" d="m349.9 357.4l-15.3 85.7 110 0.5 16.4-81.2c0.6-3.1-1.7-6-4.8-6.1l-101.2-3c-2.5-0.1-4.7 1.7-5.1 4.1z"/>
					<g id="&lt;Clip Group&gt;">
						<path id="&lt;Path&gt;" class="s0" d="m334.6 443.1l-53.5 37.9 122.5-3.5 41-33.9z"/>
						<path id="&lt;Path&gt;" class="s5" d="m334.6 443.1l-53.5 37.9 122.5-3.5 41-33.9z"/>
						<path id="&lt;Path&gt;" class="s9" d="m334.6 443.1l-53.5 37.9 122.5-3.5 41-33.9z"/>
					</g>
				</g>
				<g id="&lt;Clip Group&gt;">
					<path id="&lt;Path&gt;" class="s0" d="m375.1 480.6c0 0 44-38.5 87.5-51.5 43.5-13 52.5-11 51.5 8.5-1 19.5-22 121.5-36 147.5-14 26-31.5 73.5-31 82.5 0.5 9 17.5 35.5 32.5 45 15 9.5 13.5 21 4 23-9.5 2-20.5 5.5-53-15.5-32.5-21-46-51-44-58.5 2-7.5 23-17.5 31.5-32.5 8.5-15 22.5-71 23.5-96.5 1-25.5 10-47 10-47 0 0-55 10-71 20z"/>
					<path id="&lt;Path&gt;" class="s5" d="m375.1 480.6c0 0 44-38.5 87.5-51.5 43.5-13 52.5-11 51.5 8.5-1 19.5-22 121.5-36 147.5-14 26-31.5 73.5-31 82.5 0.5 9 17.5 35.5 32.5 45 15 9.5 13.5 21 4 23-9.5 2-20.5 5.5-53-15.5-32.5-21-46-51-44-58.5 2-7.5 23-17.5 31.5-32.5 8.5-15 22.5-71 23.5-96.5 1-25.5 10-47 10-47 0 0-55 10-71 20z"/>
					<path id="&lt;Path&gt;" class="s9" d="m375.1 480.6c0 0 44-38.5 87.5-51.5 43.5-13 52.5-11 51.5 8.5-1 19.5-22 121.5-36 147.5-14 26-31.5 73.5-31 82.5 0.5 9 17.5 35.5 32.5 45 15 9.5 13.5 21 4 23-9.5 2-20.5 5.5-53-15.5-32.5-21-46-51-44-58.5 2-7.5 23-17.5 31.5-32.5 8.5-15 22.5-71 23.5-96.5 1-25.5 10-47 10-47 0 0-55 10-71 20z"/>
				</g>
				<path id="&lt;Path&gt;" class="s9" d="m418.1 629.1q-0.9 1.7-2.1 3.3c7.7 0.9 18.9 3.6 28.1 11.7 2.7 2.4 5 4.6 6.9 6.7 5.8-18.7 17.3-47.5 27.1-65.7 14-26 35-128 36-147.5 1-19.5-8-21.5-51.5-8.5-43.5 13-87.5 51.5-87.5 51.5l5.5 25c16-10 71-20 71-20 0 0-9 21.5-10 47-1 25.5-15 81.5-23.5 96.5z"/>
				<g id="&lt;Clip Group&gt;">
					<path id="&lt;Path&gt;" class="s5" d="m418.1 629.1q-0.9 1.7-2.1 3.3c7.7 0.9 18.9 3.6 28.1 11.7 2.7 2.4 5 4.6 6.9 6.7 9.6-12.9 20.3-53.5 32.5-70.3 31.4-43.1 29.6-123.4 30.6-142.9 1-19.5-8-21.5-51.5-8.5-43.5 13-87.5 51.5-87.5 51.5l5.5 25c16-10 71-20 71-20 0 0-9 21.5-10 47-1 25.5-15 81.5-23.5 96.5z"/>
					<path id="&lt;Path&gt;" class="s6" d="m493 435c-0.8-7.1-78.1 25.6-110.7 39.8-4.6 3.6-7.2 5.8-7.2 5.8l5.5 25c16-10 71-20 71-20 0 0-9 21.5-10 47-1 25.5-15 81.5-23.5 96.5q-0.9 1.7-2.1 3.3c4.5 0.5 10.2 1.7 16 4.2 12.1-25.7 24.9-55.3 31-78.6 11-42 31-114 30-123z"/>
					<path id="&lt;Path&gt;" class="s2" d="m451.6 485.6c0 0 15-30.5 28-43"/>
					<path id="&lt;Path&gt;" class="s4" d="m418.1 629.1q-0.9 1.7-2.1 3.3c7.7 0.9 18.9 3.6 28.1 11.7 2.7 2.4 5 4.6 6.9 6.7 9.6-12.9 20.3-53.5 32.5-70.3 31.4-43.1 29.6-123.4 30.6-142.9 1-19.5-8-21.5-51.5-8.5-43.5 13-87.5 51.5-87.5 51.5l5.5 25c16-10 71-20 71-20 0 0-9 21.5-10 47-1 25.5-15 81.5-23.5 96.5z"/>
				</g>
				<path id="&lt;Path&gt;" class="s4" d="m309.2 520.9c0 0 24.7-0.7 47.3-8.9 22.6-8.2-18.5-23.3-34.3-15.1-15.7 8.2-13 24-13 24z"/>
				<g id="&lt;Clip Group&gt;">
					<path id="&lt;Path&gt;" class="s0" d="m455.7 663c13.4 9.6 25 18.1 28.4 20.6 8 6 23 17 26.5 17.5 1.3 0.2 6.7-5.3 13.5-13.1l-57.3-36.8z"/>
					<path id="&lt;Path&gt;" class="s5" d="m455.7 663c13.4 9.6 25 18.1 28.4 20.6 8 6 23 17 26.5 17.5 1.3 0.2 6.7-5.3 13.5-13.1l-57.3-36.8z"/>
					<path id="&lt;Path&gt;" class="s9" d="m244.1 488.6c0 0-16 9-21.5 19-5.5 10 18.2 26.7 43.2 25.7 25-1 70.8-28.2 70.8-28.2 0 0 0.5 44 9 60 8.5 16 47.5 55 63 65 15.5 10 67.5 47.5 75.5 53.5 8 6 23 17 26.5 17.5 3.5 0.5 40-44 48.5-59 8.5-15 16-46.5 13-53.5-3-7-9-1-15 4-6 5-61 41.5-66 44-5 2.5-8.5 3.5-8.5 3.5 0 0-45-43-69-76-24-33-26-75.5-35-91.5-9-16-22-23-41.5-21-19.5 2-60 12.5-93 37z"/>
				</g>
				<g id="&lt;Clip Group&gt;">
					<path id="&lt;Path&gt;" class="s5" d="m479.5 637.1c-10.5-10.3-50.2-63.5-65.9-94.1-22.9-44.8-25.4-60.1-34.4-76.1-9-16-22.6-17.3-42.1-15.3-19.5 2-54.4 5.7-97.2 29.9 0 0-17.9 9.8-23.4 19.8-5.5 10 14.5 35.2 49.3 32 24.9-2.3 70.8-28.2 70.8-28.2 0 0 0.5 44 9 60 8.5 16 47.5 55 63 65 9.9 6.4 34.4 23.8 53 37.2 4.7-16.8 13-25.9 17.9-30.2z"/>
					<path id="&lt;Path&gt;" class="s6" d="m379 566c-15-38-6-114-48-104-30.6 7.3-86.7 33.2-114.9 46.7 3.4 11.4 21.8 27.2 49.7 24.6 24.9-2.3 70.8-28.2 70.8-28.2 0 0 0.5 44 9 60 8.5 16 47.5 55 63 65 9.9 6.4 34.4 23.8 53 37.2 1.9-6.8 4.4-12.3 7-16.8-37.2-27.5-81.2-63.3-89.6-84.5z"/>
					<path id="&lt;Path&gt;" class="s2" d="m336.6 505.1l-1.5-26"/>
					<path id="&lt;Path&gt;" class="s4" d="m479.5 637.1c-10.5-10.3-50.2-63.5-65.9-94.1-22.9-44.8-25.4-60.1-34.4-76.1-9-16-22.6-17.3-42.1-15.3-19.5 2-54.4 5.7-97.2 29.9 0 0-17.9 9.8-23.4 19.8-5.5 10 14.5 35.2 49.3 32 24.9-2.3 70.8-28.2 70.8-28.2 0 0 0.5 44 9 60 8.5 16 47.5 55 63 65 9.9 6.4 34.4 23.8 53 37.2 4.7-16.8 13-25.9 17.9-30.2z"/>
				</g>
				<path id="&lt;Path&gt;" class="s4" d="m484.1 683.6c8 6 23 17 26.5 17.5 3.5 0.5 40-44 48.5-59 8.5-15 16-46.5 13-53.5-3-7-9-1-15 4-6 5-61 41.5-66 44q-1.9 1-3.5 1.7c-1.5 2.7-3.2 7-2 9.8 2 4.5 10.5 10.5 10.5 10.5l-15.1 22.7c1.4 1 2.4 1.8 3.1 2.3z"/>
				<g id="&lt;Clip Group&gt;">
					<path id="&lt;Path&gt;" class="s0" d="m511.1 701q0.2-0.1 0.5-0.2 0-0.1 0.1-0.1 0.3-0.2 0.7-0.5 0.1-0.1 0.2-0.2 0.3-0.2 0.6-0.5 0.2-0.1 0.3-0.3 0.4-0.3 0.8-0.7 0.2-0.2 0.5-0.5 0.3-0.3 0.6-0.6 0.3-0.3 0.6-0.6 0.3-0.2 0.6-0.5 0.6-0.7 1.4-1.5 0.1-0.1 0.2-0.3 0.5-0.4 0.9-0.9 0.2-0.2 0.4-0.4 1.5-1.7 3.3-3.7 0 0 0.1-0.1 0.6-0.7 1.2-1.4 0 0 0 0l-8.7-5.6c-5 5.4-9.6 10.3-13.3 14.1q0 0 0 0 0.7 0.4 1.3 0.9 0.1 0 0.2 0.1 0.7 0.4 1.3 0.8 0 0 0 0 1 0.6 1.9 1.1 0.3 0.2 0.6 0.3 0.3 0.2 0.5 0.3 0.4 0.2 0.7 0.4 0.2 0.1 0.4 0.2 0.3 0.1 0.6 0.2 0.2 0.1 0.3 0.1 0.4 0.2 0.7 0.2 0.2 0.1 0.4 0 0.1-0.1 0.1-0.1z"/>
					<path id="&lt;Path&gt;" class="s5" d="m511.1 701q0.2-0.1 0.5-0.2 0-0.1 0.1-0.1 0.3-0.2 0.7-0.5 0.1-0.1 0.2-0.2 0.3-0.2 0.6-0.5 0.2-0.1 0.3-0.3 0.4-0.3 0.8-0.7 0.2-0.2 0.5-0.5 0.3-0.3 0.6-0.6 0.3-0.3 0.6-0.6 0.3-0.2 0.6-0.5 0.6-0.7 1.4-1.5 0.1-0.1 0.2-0.3 0.5-0.4 0.9-0.9 0.2-0.2 0.4-0.4 1.5-1.7 3.3-3.7 0 0 0.1-0.1 0.6-0.7 1.2-1.4 0 0 0 0l-8.7-5.6c-5 5.4-9.6 10.3-13.3 14.1q0 0 0 0 0.7 0.4 1.3 0.9 0.1 0 0.2 0.1 0.7 0.4 1.3 0.8 0 0 0 0 1 0.6 1.9 1.1 0.3 0.2 0.6 0.3 0.3 0.2 0.5 0.3 0.4 0.2 0.7 0.4 0.2 0.1 0.4 0.2 0.3 0.1 0.6 0.2 0.2 0.1 0.3 0.1 0.4 0.2 0.7 0.2 0.2 0.1 0.4 0 0.1-0.1 0.1-0.1z"/>
					<path id="&lt;Path&gt;" class="s9" d="m559.1 642.1c8.5-15 16-46.5 13-53.5-1.7-4-4.4-3.7-7.6-1.7 2.1 9.3 0 27.3-10.4 46.7-9.2 17.4-37.7 48-52 62.9 3.9 2.5 7.1 4.4 8.5 4.6 3.5 0.5 40-44 48.5-59z"/>
				</g>
				<path id="&lt;Path&gt;" class="s4" d="m479.6 712.6c-15-9.5-32-36-32.5-45 0-0.7 0.1-1.7 0.3-2.9-4.8 0-8.3 2.9-8.3 2.9 0 0-11-10-19.5-15.5-6.1-3.9-13.9-5-17.9-5.3-7.3 5.9-14 10.8-15.1 14.8-2 7.5 11.5 37.5 44 58.5 32.5 21 43.5 17.5 53 15.5 9.5-2 11-13.5-4-23z"/>
				<path id="&lt;Path&gt;" class="s9" d=""/>
				<g id="&lt;Clip Group&gt;">
					<path id="&lt;Path&gt;" class="s0" d="m479.6 712.6c-4.4-2.8-9-7.1-13.3-11.9-10.3-4.4-24.1-10.1-36.2-17.6-13-8-10-13-17.5-20.5-5.7-5.7-17-6.5-22-6.5-2.1 2-3.5 3.8-4 5.5-2 7.5 11.5 37.5 44 58.5 32.5 21 43.5 17.5 53 15.5 9.5-2 11-13.5-4-23z"/>
					<path id="&lt;Path&gt;" class="s5" d="m479.6 712.6c-4.4-2.8-9-7.1-13.3-11.9-10.3-4.4-24.1-10.1-36.2-17.6-13-8-10-13-17.5-20.5-5.7-5.7-17-6.5-22-6.5-2.1 2-3.5 3.8-4 5.5-2 7.5 11.5 37.5 44 58.5 32.5 21 43.5 17.5 53 15.5 9.5-2 11-13.5-4-23z"/>
					<path id="&lt;Path&gt;" class="s9" d="m479.6 712.6c-4.4-2.8-9-7.1-13.3-11.9-10.3-4.4-24.1-10.1-36.2-17.6-13-8-10-13-17.5-20.5-5.7-5.7-17-6.5-22-6.5-2.1 2-3.5 3.8-4 5.5-2 7.5 11.5 37.5 44 58.5 32.5 21 43.5 17.5 53 15.5 9.5-2 11-13.5-4-23z"/>
				</g>
				<g id="&lt;Clip Group&gt;">
					<path id="&lt;Path&gt;" class="s5" d="m482.1 716.1c-13-7.5-39.5-12.5-56.5-24-17-11.5-12.5-21.5-25-29.5-5.7-3.6-10.5-2.8-14-0.8-1.7 7.8 11.8 37.5 44 58.3 32.5 21 43.5 17.5 53 15.5 6.4-1.3 9.1-6.8 5.8-13.2-2-2.4-4.4-4.6-7.3-6.3z"/>
					<path id="&lt;Path&gt;" class="s4" d="m482.1 716.1c-13-7.5-39.5-12.5-56.5-24-17-11.5-12.5-21.5-25-29.5-5.7-3.6-10.5-2.8-14-0.8-1.7 7.8 11.8 37.5 44 58.3 32.5 21 43.5 17.5 53 15.5 6.4-1.3 9.1-6.8 5.8-13.2-2-2.4-4.4-4.6-7.3-6.3z"/>
				</g>
				<g id="&lt;Group&gt;">
					<path id="&lt;Path&gt;" class="s9" d="m233 620.5c0 0 9.6-11.7 10.9-2.7 1.4 8.9-0.6 25.3-7.5 31.5-6.8 6.2-10.3-3.4-10.3-3.4l4.1-5.5c0 0 3.5 6.8 6.2-4.1 2.8-11-5.5-9.6-5.5-9.6z"/>
					<path id="&lt;Path&gt;" class="s9" d="m225.6 664.4c-5.6 4.2-24.2 4.2-29.8 0-12.1-8.9-10-51.9-10-51.9h49.7c0 0 2.2 43-9.9 51.9z"/>
					<g id="&lt;Group&gt;">
						<path id="&lt;Path&gt;" class="s2" d="m191.2 604c0-5.4 5-5.4 5-10.8 0-5.4-5-5.4-5-10.8 0-5.4 5-5.4 5-10.8 0-5.5-5-5.5-5-10.9 0-5.4 5-5.4 5-10.8"/>
						<path id="&lt;Path&gt;" class="s2" d="m208.4 604c0-4.1 5-4.1 5-8.2 0-4.1-5-4.1-5-8.2 0-4.1 5-4.1 5-8.2 0-4.1-5-4.1-5-8.3 0-4.1 5-4.1 5-8.2"/>
						<path id="&lt;Path&gt;" class="s2" d="m227.3 604c0-5.4 5-5.4 5-10.8 0-5.4-5-5.4-5-10.8 0-5.4 5-5.4 5-10.8 0-5.5-5-5.5-5-10.9 0-5.4 5-5.4 5-10.8"/>
					</g>
					<path id="&lt;Path&gt;" class="s9" d="m235.5 612.5c0 1.2-11.1 2.2-24.8 2.2-13.8 0-24.9-1-24.9-2.2 0-1.3 11.1-2.3 24.9-2.3 13.7 0 24.8 1 24.8 2.3z"/>
				</g>
				<g id="&lt;Group&gt;">
					<g id="&lt;Clip Group&gt;">
						<path id="&lt;Path&gt;" class="s0" d="m313.5 325.2l-2-3.9c-3.7-2-8.8-5-13.7-8.2-8.9-6-15.1-12.8-16.4-10.1 0 0 2.4 25.3 3.4 33.3 0.9 7.9 3.2 30.9 5.5 38.5 0.5 1.8 1.7 4 3.2 6.2-2.4-15.1 0.2-42.3 0.2-42.3z"/>
						<path id="&lt;Path&gt;" class="s5" d="m313.5 325.2l-2-3.9c-3.7-2-8.8-5-13.7-8.2-8.9-6-15.1-12.8-16.4-10.1 0 0 2.4 25.3 3.4 33.3 0.9 7.9 3.2 30.9 5.5 38.5 0.5 1.8 1.7 4 3.2 6.2-2.4-15.1 0.2-42.3 0.2-42.3z"/>
						<path id="&lt;Path&gt;" class="s9" d="m281.4 303c0 0 2.4 25.3 3.4 33.3 0.9 7.9 3.2 30.9 5.5 38.5 2.3 7.5 14.8 20.7 16 17.7 1.2-3.1 7.4-23.7 4.9-35.9-2.4-12.3-3.2-22.9-1.7-26 1.6-3 7.1-6.6 7.1-6.6 0 0-9.8-4.9-18.8-10.9-8.9-6-15.1-12.8-16.4-10.1z"/>
					</g>
					<g id="&lt;Group&gt;">
						<g id="&lt;Group&gt;">
							<g id="&lt;Clip Group&gt;">
								<path id="&lt;Path&gt;" class="s0" d="m306.4 306.1c-5.1-15.1-6.4-38.9-6.4-45.2 0-4.9 12.8-10.3 18.6-12.5-3.8-2.4-8.2-2.7-14-3.2-10-0.9-30.1 7.3-33.7 17-3.5 9.7 0.5 23.5 3.4 31.6 3 8.2 6.2 12.9 6.2 12.9 0 0 14.4 12 25.5 16.4 7.3 2.9 17.3 3.7 23.9 2.3-7.9-3-20.1-9.2-23.5-19.3z"/>
								<path id="&lt;Path&gt;" class="s5" d="m306.4 306.1c-5.1-15.1-6.4-38.9-6.4-45.2 0-4.9 12.8-10.3 18.6-12.5-3.8-2.4-8.2-2.7-14-3.2-10-0.9-30.1 7.3-33.7 17-3.5 9.7 0.5 23.5 3.4 31.6 3 8.2 6.2 12.9 6.2 12.9 0 0 14.4 12 25.5 16.4 7.3 2.9 17.3 3.7 23.9 2.3-7.9-3-20.1-9.2-23.5-19.3z"/>
								<path id="&lt;Path&gt;" class="s9" d="m280.5 306.7c0 0 14.4 12 25.5 16.4 11 4.3 28 4.1 30.4-1.7 2.4-5.7-4.2-51.2-9.9-63.1-5.7-12-11.8-12.2-21.9-13.1-10-0.9-30.1 7.3-33.7 17-3.5 9.7 0.5 23.5 3.4 31.6 3 8.2 6.2 12.9 6.2 12.9z"/>
							</g>
							<path id="&lt;Path&gt;" class="s2" d="m327.6 276.9c0.2 5.8-3.4 10.6-8.1 10.8-4.7 0.2-8.7-4.3-8.9-10.1-0.2-5.7 3.4-10.6 8.1-10.8 4.7-0.1 8.6 4.4 8.9 10.1z"/>
							<path id="&lt;Path&gt;" class="s2" d="m338.9 274.8c0.2 5.7-1.6 10.5-4.2 10.6-2.5 0.1-4.7-4.5-4.9-10.3-0.3-5.7 1.6-10.5 4.1-10.6 2.5-0.1 4.8 4.5 5 10.3z"/>
							<path id="&lt;Path&gt;" class="s9" d="m328.2 274.9c0 0 16.5 3.1 14.9 7.1-1.6 4-12.8 8.3-12.8 8.3"/>
							<path id="&lt;Path&gt;" class="s2" d="m327.1 273c0 0 0.3-2 2.8-0.7"/>
							<path id="&lt;Path&gt;" class="s2" d="m310.2 278.6l-30.1 11.8"/>
							<path id="&lt;Path&gt;" class="s10" d="m310.6 268.8c0 0 1.8-4.7 7.4-4.5"/>
							<path id="&lt;Path&gt;" class="s10" d="m330.6 264.5l-4.7 1.7"/>
							<path id="&lt;Path&gt;" class="s2" d="m316.3 298c0 0 5.9-1.6 9.4 2"/>
							<path id="&lt;Path&gt;" class="s3" d="m320.1 278c0.3 2.1 0 3.8-0.8 3.9-0.7 0.1-1.5-1.5-1.8-3.5-0.3-2 0.1-3.7 0.8-3.8 0.8-0.1 1.6 1.4 1.8 3.4z"/>
						</g>
						<g id="&lt;Group&gt;">
							<path id="&lt;Path&gt;" class="s4" d="m282.9 290.5c0 0-2 4 3.7 4.2 5.6 0.2 9.4-2.6 6.7-6-2.7-3.3-6.8-6.7-2.6-11.2 4.2-4.5 12.3-8.3 7.7-13.3-4.5-5.1-21.3-0.5-17.1-4.6 4.2-4.1 23.6-8.3 32.3-7.8 8.7 0.5 25-6.2 28.6-15 3.5-8.9-1.4-25.2-13.2-24.3-11.7 0.9-20.4 11.2-25.6 11.9-5.2 0.6-15.9-5.1-24.8 0.1-9 5.1-9.3 19.5-10.1 21.3-0.8 1.7-12.8 4.4-15 16.6-2.1 12.3 3.5 22.1 8.5 27.6 5 5.4 7.3 7.5 7.3 7.5z"/>
							<g id="&lt;Group&gt;">
								<path id="&lt;Path&gt;" class="s11" d="m257.5 268.3c-0.2 3 1.3 5.3 1.3 5.3"/>
								<path id="&lt;Path&gt;" class="s11" d="m308.5 236.6c0 0-4.4-9.5 6.7-9.5 11.2 0 12.7 13.9 1.2 19.1-11.5 5.2-36.6 6.3-50.1 12.3-3.4 1.5-5.5 3.2-6.9 4.9"/>
								<path id="&lt;Path&gt;" class="s11" d="m288.3 270.5c-4 1.5-9.2 3.5-14.4 5.9-11.2 5.2-8.8 10.3-8.8 10.3"/>
								<path id="&lt;Path&gt;" class="s11" d="m295.7 268.1c0 0-0.9 0.2-2.6 0.8"/>
							</g>
						</g>
						<g id="&lt;Clip Group&gt;">
							<path id="&lt;Path&gt;" class="s0" d="m284.8 294.7c0 0-6.4-9.3-13.2-5.5-6.9 3.7-1.6 17 2.5 21.6 4.1 4.6 12.1-3.9 12.9-6.1"/>
							<path id="&lt;Path&gt;" class="s5" d="m284.8 294.7c0 0-6.4-9.3-13.2-5.5-6.9 3.7-1.6 17 2.5 21.6 4.1 4.6 12.1-3.9 12.9-6.1"/>
							<path id="&lt;Path&gt;" class="s9" d="m284.8 294.7c0 0-6.4-9.3-13.2-5.5-6.9 3.7-1.6 17 2.5 21.6 4.1 4.6 12.1-3.9 12.9-6.1"/>
						</g>
					</g>
				</g>
			</g>
			<g id="&lt;Group&gt;">
				<path id="&lt;Path&gt;" class="s9" d="m203.2 411.5h-143.3c-5.7 0-10.3-4.6-10.3-10.2v-104.8c0-5.7 4.6-10.3 10.3-10.3h143.3c5.7 0 10.3 4.6 10.3 10.3v104.8c0 5.6-4.6 10.2-10.3 10.2z"/>
				<path id="&lt;Path&gt;" class="s9" d="m210.4 376.4l96 25-96-47"/>
				<path id="&lt;Path&gt;" class="s7" d="m101.4 399.5h-38.5v-101.2h38.5z"/>
				<path id="&lt;Path&gt;" class="s7" d="m205 399.5h-4.8v-101.2h4.8z"/>
				<path id="&lt;Path&gt;" class="s4" d="m205 353.2h-4.8v-8.7h4.8z"/>
				<path id="&lt;Path&gt;" class="s9" d="m113.5 300.7h75.9"/>
				<path id="&lt;Path&gt;" class="s9" d="m113.5 311.5h75.9"/>
				<path id="&lt;Path&gt;" class="s9" d="m113.5 322.4h75.9"/>
				<path id="&lt;Path&gt;" class="s9" d="m113.5 333.2h75.9"/>
				<path id="&lt;Path&gt;" class="s9" d="m113.5 359.7h75.9"/>
				<path id="&lt;Path&gt;" class="s9" d="m113.5 369.4h75.9"/>
				<path id="&lt;Path&gt;" class="s9" d="m113.5 379h75.9"/>
				<path id="&lt;Path&gt;" class="s9" d="m113.5 399h75.9"/>
				<path id="&lt;Path&gt;" class="s2" d="m62.9 399.5l38.5-101.2"/>
			</g>
		</g>
	</g>
	<g id="Plants">
		<g id="&lt;Group&gt;">
			<g id="&lt;Group&gt;">
				<path id="&lt;Path&gt;" class="s0" d="m677.2 664.5c0 8.3-15 15-33.5 15-18.4 0-33.4-6.7-33.4-15 0-8.3 15-15 33.4-15 18.5 0 33.5 6.7 33.5 15z"/>
				<path id="&lt;Path&gt;" class="s5" d="m677.2 664.5c0 8.3-15 15-33.5 15-18.4 0-33.4-6.7-33.4-15 0-8.3 15-15 33.4-15 18.5 0 33.5 6.7 33.5 15z"/>
			</g>
			<g id="&lt;Group&gt;">
				<path id="&lt;Path&gt;" class="s3" d="m604.6 442.6c3.6 1.5 12.3 1.3 12.3 1.3 0.1 0-1.8-5.7-2-6.1-1.9-4-8-10.6-13-9.9-3.5 0.4-5.5 4-4.7 7.4 0.8 3.4 4.3 5.9 7.4 7.3z"/>
				<path id="&lt;Compound Path&gt;" fill-rule="evenodd" class="s3" d="m724.3 420c-0.8 3.5-4.2 6.1-7.2 7.5-3.1 1.5-10.2 1.7-11.9 1.7-1 1.1-2 2.3-3.1 3.7-1.9 2.4-4 5.2-6.1 8.3-0.5 0.9-1.1 1.8-1.6 2.7 1.2-1.3 3-3.1 3.2-3.2 3.5-2.8 11.8-6.1 16-3.4 3 2 3.2 6.1 1 8.8-2.2 2.7-6.5 3.5-9.8 3.3-3.5-0.1-10-3.3-11.4-4-1.2 2-2.5 4-3.6 6.3-1.9 3.8-3.8 8-5.2 12.4-0.1 0.3-0.1 0.6-0.2 0.8 0.5-0.7 3.6-4.6 3.9-4.9 3.1-3.1 11.1-7.3 15.5-5.1 3.2 1.7 3.9 5.7 2 8.6-1.9 3-6.1 4.2-9.4 4.4-3.8 0.3-11.8-2.7-12.1-2.8-1.2 4.2-2.1 8.6-2.8 13.2-0.5 3.2-0.9 6.6-1.3 10 0.7-1 3.6-4.6 3.8-4.8 3.2-3.2 11.1-7.4 15.6-5.1 3.2 1.6 3.8 5.7 2 8.6-2 2.9-6.1 4.1-9.4 4.4-3.8 0.2-11.4-2.6-12-2.8q-0.3 2.2-0.5 4.5c-0.5 5.1-0.9 10.1-1.6 15-0.2 1.7-0.4 3.4-0.7 5.1 1.1-1.4 3.1-3.9 3.3-4.1 3.1-3.1 11.1-7.4 15.5-5.1 3.2 1.7 3.9 5.7 2 8.6-1.9 2.9-6.1 4.2-9.4 4.4-3.3 0.2-9.8-2-11.6-2.7-0.4 2.8-1 5.6-1.6 8.3-0.3 1.2-0.5 2.4-0.9 3.5q-0.5 1.6-1 3.3c-0.7 2.2-1.4 4.3-2.2 6.3-0.4 1.1-0.7 2-1.1 3.1 0.9-1.6 2.3-4.1 2.5-4.3 2.6-3.6 9.8-9 14.6-7.4 3.4 1.2 4.6 5 3.2 8.2-1.4 3.2-5.4 5-8.6 5.7-3.6 0.9-11.3-0.7-12.2-0.9-0.9 2.5-1.9 4.9-2.8 7.1-2.9 7-5.5 12.8-7.4 16.8q-0.2 0.3-0.4 0.6h14l-4.8 94.2c-0.4 7.2-6.3 12.8-13.4 12.8-7.2 0-13.1-5.6-13.5-12.8l-4.8-94.2h15q-0.1-1-0.2-2.1c-0.5-4.4-1.3-10.6-2.7-18-0.3-2.1-0.8-4.4-1.2-6.7-1 0.1-8.7 1.1-12.3 0-3.1-1-6.9-3.1-8.1-6.4-1.2-3.2 0.3-7 3.8-7.9 4.9-1.2 11.7 4.7 14 8.5 0.2 0.2 1.7 3.2 2.4 4.8-0.3-1.4-0.6-2.8-0.9-4.2-0.5-2.1-1-4.3-1.5-6.4q-0.5-1.7-0.9-3.4c-0.3-1.1-0.7-2.1-1.1-3.2-0.5-1.7-1.2-3.3-1.8-4.9-2.1 0.5-8.3 2.2-11.5 1.7-3.3-0.5-7.4-2-9.1-5.1-1.6-3-0.7-7 2.6-8.4 4.6-1.9 12.2 2.9 15.2 6.2 0.1 0.1 0.6 0.9 1.2 1.8-0.7-1.5-1.3-3.1-2.1-4.7-2.1-4.5-4.3-8.9-6.6-13.5q-0.7-1.4-1.4-2.8c-1.8 0.5-8.5 2.3-11.8 1.8-3.3-0.4-7.4-2-9.1-5.1-1.6-3-0.7-6.9 2.7-8.4 4.5-1.9 12.2 2.9 15.1 6.3 0.1 0.1 0.7 1 1.4 2.1q-1.8-3.7-3.4-7.5c-1.9-4.3-3.5-8.7-4.7-13.1-0.7 0.2-8.5 2.5-12.2 1.9-3.3-0.5-7.3-2-9-5.1-1.7-3-0.7-7 2.6-8.4 4.6-1.9 12.2 2.9 15.1 6.3 0.2 0.2 2.5 3.6 3.3 4.8q0-0.1 0-0.2c-1.3-4.6-1.9-9.1-2.3-13.5-0.4-4.3-0.4-8.4-0.3-12.2 0.1-3.8 0.4-7.2 0.7-10.3q0.3-2.5 0.6-4.6c0 0-0.1 0.1-0.1 0.1-0.1 0-1.8-5.8-1.8-6.2-0.8-4.4 0.4-13.3 4.8-15.6 3.2-1.6 6.9 0.2 8.2 3.4 1.3 3.2-0.2 7.3-1.9 10.2-1.8 2.9-7.5 7-9 8-0.2 1.4-0.3 3-0.5 4.7-0.2 3.1-0.5 6.6-0.5 10.3 0 1 0.1 2.1 0.1 3.2 0.3-1.8 0.8-4.2 0.9-4.5 1.4-4.2 6.5-11.6 11.5-11.6 3.6 0 6 3.3 5.7 6.7-0.4 3.5-3.5 6.5-6.4 8.2-2.9 1.8-10.1 2.8-11.7 3 0.1 2.3 0.2 4.7 0.5 7.2 0.5 4.2 1.2 8.8 2.5 13.2 0.1 0.3 0.2 0.5 0.3 0.8 0-0.9 0.4-5.9 0.5-6.2 0.9-4.4 5.2-12.3 10.2-12.8 3.5-0.4 6.3 2.6 6.4 6 0 3.6-2.8 6.9-5.5 8.9-3 2.3-11.3 4.2-11.6 4.3 1.3 4.2 3 8.4 4.9 12.5 1.4 3.1 2.9 6.1 4.5 9.1 0-1.2 0.5-5.8 0.5-6.1 0.9-4.4 5.2-12.3 10.2-12.8 3.6-0.4 6.3 2.6 6.4 6 0 3.5-2.8 6.9-5.5 8.9-2.9 2.3-10.8 4.1-11.5 4.2q1.1 2.1 2.2 4.1c2.3 4.5 4.7 8.9 6.9 13.4 0.8 1.6 1.5 3.1 2.2 4.7 0.1-1.8 0.4-5 0.5-5.3 0.9-4.3 5.2-12.2 10.1-12.8 3.6-0.4 6.4 2.6 6.4 6.1 0 3.5-2.8 6.8-5.4 8.8-2.7 2.1-9.3 3.7-11.1 4.2 1.1 2.6 2.2 5.2 3.2 7.8 0.4 1.1 0.8 2.2 1.1 3.4q0.5 1.6 1 3.3c0.6 2.2 1.2 4.3 1.7 6.5 0.3 1.1 0.5 2.1 0.7 3.1-0.1-1.8-0.3-4.6-0.3-4.9 0.3-4.5 3.3-12.9 8.2-14.2 3.4-0.9 6.6 1.6 7.2 5q0.1 0.7 0.1 1.3c2 3.4 3.1 8.2 3 11.2 0 0.2-0.4 3.6-0.7 5.3 0.5-1.3 1.1-2.6 1.6-4 0.8-2 1.5-4.1 2.3-6.2q0.5-1.6 1-3.3c0.4-1.1 0.7-2.2 1-3.3 0.4-1.7 0.8-3.4 1.1-5.1-2-0.7-8.1-2.7-10.5-4.9-2.5-2.2-5-5.7-4.7-9.2 0.2-3.5 3.2-6.2 6.8-5.6 4.9 0.9 8.6 9.1 9.2 13.5 0 0.2 0 1.1 0 2.2 0.3-1.6 0.6-3.3 0.9-5 0.7-4.9 1.3-9.9 1.9-14.9q0.2-1.6 0.4-3.2c-1.8-0.5-8.4-2.7-10.9-5-2.5-2.2-5-5.7-4.7-9.2 0.3-3.5 3.2-6.2 6.8-5.6 4.9 0.9 8.6 9.1 9.2 13.6 0 0.1 0 1.2 0 2.5q0.6-4.1 1.3-8.1c0.8-4.6 1.9-9.2 3.2-13.5-0.6-0.2-8.3-2.6-11.1-5.1-2.5-2.3-5.1-5.8-4.8-9.3 0.3-3.4 3.3-6.2 6.8-5.5 4.9 0.9 8.6 9.1 9.2 13.5 0.1 0.3 0.1 4.4 0.1 5.9q0-0.1 0-0.2c1.5-4.5 3.5-8.7 5.6-12.5 2.1-3.8 4.3-7.3 6.5-10.4 2.2-3.1 4.3-5.8 6.3-8.2q1.6-1.9 3-3.5c-0.1 0-0.1 0-0.1 0-0.1 0 1.7-5.8 1.8-6.1 1.9-4.1 7.8-10.9 12.7-10.4 3.6 0.4 5.7 3.9 5 7.3zm-57.3 119.7c-0.8-0.4-7.4-3.6-9.9-6.4-2.9 1.6-6.3 3-6.8 3.2 0.5 2.6 1.1 5.1 1.6 7.5 1.4 7.4 2.4 13.7 3 18.1q0.2 1.4 0.3 2.5h0.4q0.5-1 1-2.1c2-3.9 4.8-9.6 7.8-16.5 0.9-2 1.7-4.1 2.6-6.3z"/>
				<path id="&lt;Path&gt;" class="s3" d="m693.2 444.5c0.1 0 1.6-5.8 1.6-6.2 0.6-4.4-0.8-13.3-5.3-15.5-3.2-1.6-6.8 0.3-8 3.6-1.2 3.3 0.3 7.3 2.1 10.1 2.2 3.3 9.6 8 9.6 8z"/>
			</g>
		</g>
	</g>
</svg>